<svg xmlns="http://www.w3.org/2000/svg" width="47.021" height="68.978"><path d="M40.61 68.978H6.411C2.88 68.978 0 66.078 0 62.512V6.467C0 2.9 2.88 0 6.412 0h34.197c3.54 0 6.412 2.901 6.412 6.467v56.045c0 3.565-2.872 6.466-6.412 6.466Zm2.137-62.511a2.15 2.15 0 0 0-2.138-2.156H6.412a2.15 2.15 0 0 0-2.137 2.156v56.045a2.15 2.15 0 0 0 2.137 2.155h34.197a2.15 2.15 0 0 0 2.138-2.155V6.467ZM8.549 8.622h29.923v47.423H8.549V8.622Zm17.1 51.734a2.15 2.15 0 0 0-2.138-2.155 2.15 2.15 0 0 0-2.138 2.155 2.15 2.15 0 0 0 2.138 2.156 2.15 2.15 0 0 0 2.137-2.156Z" fill="rgba(255, 255, 255, 1)" fill-rule="evenodd" data-name="icon"/></svg>