<svg xmlns="http://www.w3.org/2000/svg" width="69.978" height="69.978"><path d="M43.736 34.989H21.868l-13.12 13.12V34.99a9.19 9.19 0 0 1-7.07-3.97A8.265 8.265 0 0 1 0 26.243V8.747a9.19 9.19 0 0 1 3.97-7.07A8.264 8.264 0 0 1 8.747 0h34.99a9.19 9.19 0 0 1 7.07 3.97 8.265 8.265 0 0 1 1.677 4.777v17.495a9.19 9.19 0 0 1-3.97 7.07 8.265 8.265 0 0 1-4.777 1.677Zm17.495 21.868v13.121L48.11 56.858H26.242a9.19 9.19 0 0 1-7.07-3.97c-1.036-1.43-1.677-3.104-1.677-4.778v-2.563l6.184-6.184h20.057a13.818 13.818 0 0 0 13.121-13.121v-4.374h4.374a9.19 9.19 0 0 1 7.07 3.97 8.264 8.264 0 0 1 1.677 4.777V48.11c0 2.7-1.666 5.399-3.97 7.07a8.264 8.264 0 0 1-4.777 1.677Z" fill="rgba(249, 249, 249, 1)" fill-rule="evenodd" data-name="icon"/></svg>